<svg width="13" height="8" viewBox="0 0 13 8" fill="none" xmlns="http://www.w3.org/2000/svg">
<path d="M4.33333 7.04167C4.33333 6.89801 4.3904 6.76023 4.49198 6.65865C4.59357 6.55707 4.73134 6.5 4.875 6.5H8.125C8.26866 6.5 8.40643 6.55707 8.50802 6.65865C8.6096 6.76023 8.66667 6.89801 8.66667 7.04167C8.66667 7.18533 8.6096 7.3231 8.50802 7.42468C8.40643 7.52627 8.26866 7.58333 8.125 7.58333H4.875C4.73134 7.58333 4.59357 7.52627 4.49198 7.42468C4.3904 7.3231 4.33333 7.18533 4.33333 7.04167ZM2.16667 3.79167C2.16667 3.64801 2.22374 3.51023 2.32532 3.40865C2.4269 3.30707 2.56467 3.25 2.70833 3.25H10.2917C10.4353 3.25 10.5731 3.30707 10.6747 3.40865C10.7763 3.51023 10.8333 3.64801 10.8333 3.79167C10.8333 3.93533 10.7763 4.0731 10.6747 4.17468C10.5731 4.27627 10.4353 4.33333 10.2917 4.33333H2.70833C2.56467 4.33333 2.4269 4.27627 2.32532 4.17468C2.22374 4.0731 2.16667 3.93533 2.16667 3.79167ZM0 0.541667C0 0.398008 0.0570684 0.260233 0.158651 0.158651C0.260233 0.0570684 0.398008 0 0.541667 0H12.4583C12.602 0 12.7398 0.0570684 12.8414 0.158651C12.9429 0.260233 13 0.398008 13 0.541667C13 0.685326 12.9429 0.823101 12.8414 0.924683C12.7398 1.02626 12.602 1.08333 12.4583 1.08333H0.541667C0.398008 1.08333 0.260233 1.02626 0.158651 0.924683C0.0570684 0.823101 0 0.685326 0 0.541667Z" fill="#333333"/>
</svg>
