<svg width="25" height="25" viewBox="0 0 25 25" fill="none" xmlns="http://www.w3.org/2000/svg">
<path d="M10.119 25H0.595238C0.437371 25 0.28597 24.9373 0.174341 24.8257C0.0627125 24.714 0 24.5626 0 24.4048V14.881C0 14.7231 0.0627125 14.5717 0.174341 14.4601C0.28597 14.3484 0.437371 14.2857 0.595238 14.2857H10.119C10.2769 14.2857 10.4283 14.3484 10.5399 14.4601C10.6516 14.5717 10.7143 14.7231 10.7143 14.881V24.4048C10.7143 24.5626 10.6516 24.714 10.5399 24.8257C10.4283 24.9373 10.2769 25 10.119 25ZM9.52381 15.4762H1.19048V23.8095H9.52381V15.4762ZM24.4048 25H14.881C14.7231 25 14.5717 24.9373 14.4601 24.8257C14.3484 24.714 14.2857 24.5626 14.2857 24.4048V14.881C14.2857 14.7231 14.3484 14.5717 14.4601 14.4601C14.5717 14.3484 14.7231 14.2857 14.881 14.2857H24.4048C24.5626 14.2857 24.714 14.3484 24.8257 14.4601C24.9373 14.5717 25 14.7231 25 14.881V24.4048C25 24.5626 24.9373 24.714 24.8257 24.8257C24.714 24.9373 24.5626 25 24.4048 25ZM23.8095 15.4762H15.4762V23.8095H23.8095V15.4762ZM10.119 10.7143H0.595238C0.437371 10.7143 0.28597 10.6516 0.174341 10.5399C0.0627125 10.4283 0 10.2769 0 10.119V0.595238C0 0.437371 0.0627125 0.28597 0.174341 0.174341C0.28597 0.0627124 0.437371 0 0.595238 0H10.119C10.2769 0 10.4283 0.0627124 10.5399 0.174341C10.6516 0.28597 10.7143 0.437371 10.7143 0.595238V10.119C10.7143 10.2769 10.6516 10.4283 10.5399 10.5399C10.4283 10.6516 10.2769 10.7143 10.119 10.7143ZM9.52381 1.19048H1.19048V9.52381H9.52381V1.19048ZM24.4048 10.7143H14.881C14.7231 10.7143 14.5717 10.6516 14.4601 10.5399C14.3484 10.4283 14.2857 10.2769 14.2857 10.119V0.595238C14.2857 0.437371 14.3484 0.28597 14.4601 0.174341C14.5717 0.0627124 14.7231 0 14.881 0H24.4048C24.5626 0 24.714 0.0627124 24.8257 0.174341C24.9373 0.28597 25 0.437371 25 0.595238V10.119C25 10.2769 24.9373 10.4283 24.8257 10.5399C24.714 10.6516 24.5626 10.7143 24.4048 10.7143ZM23.8095 1.19048H15.4762V9.52381H23.8095V1.19048Z" fill="#333333"/>
</svg>
